<?xml version="1.0" encoding="utf-8"?>
<!-- Generator: Adobe Illustrator 24.1.1, SVG Export Plug-In . SVG Version: 6.00 Build 0)  -->
<svg version="1.1" id="Layer_1" xmlns="http://www.w3.org/2000/svg" xmlns:xlink="http://www.w3.org/1999/xlink" x="0px" y="0px"
	 viewBox="0 0 512 512" style="enable-background:new 0 0 512 512;" xml:space="preserve">
<style type="text/css">
	.st0{fill:#161614;}
</style>
<g>
	<path class="st0" d="M256,6.3C114.6,6.3,0,120.9,0,262.3c0,113.1,73.4,209.1,175.1,242.9c12.8,2.4,17.5-5.6,17.5-12.3
		c0-6.1-0.2-26.3-0.3-47.7C121,460.8,106,415.1,106,415.1c-11.6-29.6-28.4-37.5-28.4-37.5c-23.2-15.9,1.8-15.6,1.8-15.6
		c25.7,1.8,39.2,26.4,39.2,26.4c22.8,39.1,59.9,27.8,74.5,21.3c2.3-16.5,8.9-27.8,16.3-34.2C152.4,369,92.6,347,92.6,249
		c0-28,10-50.8,26.4-68.7c-2.7-6.4-11.4-32.5,2.5-67.7c0,0,21.5-6.9,70.4,26.2c20.4-5.7,42.3-8.5,64.1-8.6
		c21.8,0.1,43.7,2.9,64.1,8.6c48.9-33.1,70.3-26.2,70.3-26.2c13.9,35.3,5.2,61.3,2.5,67.7c16.4,17.9,26.3,40.8,26.3,68.7
		c0,98.3-59.9,120-116.9,126.3c9.2,7.9,17.4,23.5,17.4,47.4c0,34.3-0.3,61.8-0.3,70.3c0,6.8,4.6,14.8,17.6,12.3
		C438.7,471.3,512,375.4,512,262.3C512,120.9,397.4,6.3,256,6.3z M95.9,371c-0.6,1.3-2.6,1.7-4.4,0.8c-1.9-0.8-2.9-2.6-2.3-3.8
		c0.6-1.3,2.6-1.7,4.4-0.8C95.5,368,96.5,369.7,95.9,371z M108.5,382.2c-1.2,1.1-3.6,0.6-5.2-1.2c-1.7-1.8-2-4.2-0.8-5.3
		c1.3-1.1,3.6-0.6,5.3,1.2C109.4,378.7,109.8,381.1,108.5,382.2z M117.1,396.6c-1.6,1.1-4.1,0.1-5.7-2.2c-1.6-2.3-1.6-5,0-6.1
		c1.6-1.1,4.1-0.1,5.7,2.1C118.7,392.8,118.7,395.5,117.1,396.6z M131.7,413.3c-1.4,1.5-4.4,1.1-6.6-1c-2.2-2.1-2.9-5-1.5-6.5
		c1.4-1.6,4.4-1.1,6.6,1C132.5,408.8,133.2,411.7,131.7,413.3z M150.6,418.9c-0.6,2-3.5,2.9-6.4,2.1c-2.9-0.9-4.8-3.2-4.2-5.3
		c0.6-2,3.5-3,6.4-2.1C149.3,414.5,151.2,416.8,150.6,418.9z M172.1,421.3c0.1,2.1-2.4,3.9-5.4,3.9c-3.1,0.1-5.5-1.6-5.6-3.7
		c0-2.1,2.4-3.9,5.5-3.9C169.6,417.5,172.1,419.2,172.1,421.3z M193.2,420.5c0.4,2.1-1.8,4.2-4.8,4.7c-3,0.5-5.7-0.7-6.1-2.8
		c-0.4-2.1,1.8-4.2,4.8-4.8C190.1,417.1,192.8,418.4,193.2,420.5z"/>
</g>
</svg>
